<?xml version="1.0" encoding="UTF-8"?>
    <svg width="400" height="400" viewBox="-10 -10 819 561" xmlns="http://www.w3.org/2000/svg">
<path id="#0e4a7d" fill="#0e4a7d" d="M 300 240 L 300 320 L 500 320 L 500 240 L 300 240 Z" tags="undefined"  />
<path id="#1895ed" fill="#1895ed" d="M 80 60 L 80 300 L 220 300 L 220 200 L 220 200 L 220 380 L 300 380 L 300 240 L 500 240 L 500 60 L 200 60 Z" tags="undefined"  />
<path id="#2f6394" fill="#2f6394" d="M 500 320 L 500 460 L 760 460 L 760 320 L 580 320 L 500 320 Z" tags="undefined"  />
<path id="#43f914" fill="#43f914" d="M 660 240 L 660 320 L 760 320 L 760 240 Z" tags="undefined"  />
<path id="#a03583" fill="#a03583" d="M 80 300 L 80 380 L 200 380 L 200 380 L 140 380 L 140 460 L 220 460 L 220 300 L 80 300 Z" tags="undefined"  />
<path id="#b93d99" fill="#b93d99" d="M 620 60 L 620 240 L 760 240 L 760 60 L 620 60 Z" tags="undefined"  />
<path id="#c63b8e" fill="#c63b8e" d="M 500 240 L 500 320 L 660 320 L 660 240 L 500 240 Z" tags="undefined"  />
<path id="#d286d4" fill="#d286d4" d="M 300 320 L 300 380 L 360 380 L 360 320 L 300 320 Z" tags="undefined"  />
<path id="#d8a047" fill="#d8a047" d="M 360 320 L 360 380 L 380 380 L 380 460 L 500 460 L 500 320 L 360 320 Z" tags="undefined"  />
<path id="#e079b7" fill="#e079b7" d="M 80 380 L 80 460 L 140 460 L 140 380 L 80 380 Z" tags="undefined"  />
<path id="#e2e747" fill="#e2e747" d="M 300 380 L 300 460 L 380 460 L 380 380 Z" tags="undefined"  />
<path id="#ef88c5" fill="#ef88c5" d="M 220 380 L 220 460 L 300 460 L 300 380 Z" tags="undefined"  />
<path id="#f1179d" fill="red" d="M 220 380 L 220 380 L 300 380 L 300 380 L 220 380 Z" tags="undefined"  />
<path id="#f77df4" fill="#f77df4" d="M 500 60 L 500 240 L 620 240 L 620 60 L 500 60 Z" tags="undefined"  />
    </svg>